<?xml version="1.0" standalone="no"?>
<!DOCTYPE svg PUBLIC "-//W3C//DTD SVG 20010904//EN"
 "http://www.w3.org/TR/2001/REC-SVG-20010904/DTD/svg10.dtd">
<svg version="1.0" xmlns="http://www.w3.org/2000/svg"
 width="512.000000pt" height="512.000000pt" viewBox="0 0 512.000000 512.000000"
 preserveAspectRatio="xMidYMid meet">
<metadata>
Created by potrace 1.14, written by Peter Selinger 2001-2017
</metadata>
<g transform="translate(0.000000,512.000000) scale(0.100000,-0.100000)"
fill="#000000" stroke="none">
<path d="M0 2560 l0 -2560 2560 0 2560 0 0 2560 0 2560 -2560 0 -2560 0 0
-2560z m3320 1948 c258 -78 443 -229 574 -469 146 -266 178 -628 80 -901 -76
-211 -179 -358 -339 -484 l-39 -32 49 -25 c81 -41 187 -120 259 -193 121 -123
205 -273 254 -453 24 -88 26 -112 26 -296 0 -175 -3 -210 -22 -280 -47 -169
-126 -299 -263 -430 -139 -133 -309 -225 -528 -285 -217 -60 -224 -60 -1312
-60 l-993 0 -38 37 -38 37 0 1890 0 1890 37 38 37 38 1101 -2 c993 -3 1105 -5
1155 -20z"/>
<path d="M1880 3355 l0 -406 508 3 507 3 63 34 c101 55 166 143 191 259 43
206 -44 410 -207 485 -46 21 -59 22 -554 25 l-508 3 0 -406z"/>
<path d="M1880 1795 l0 -425 538 0 c592 0 598 1 694 62 113 71 180 189 186
329 2 47 -1 109 -7 138 -27 125 -113 240 -218 289 l-58 27 -567 3 -568 3 0
-426z"/>
</g>
</svg>
